<svg width="90" height="16" viewBox="0 0 90 16" fill="none" xmlns="http://www.w3.org/2000/svg">
<g id="Accenture logo" clip-path="url(#clip0_37_814)">
<path id="Vector" d="M3.34797 13.2683C1.51199 13.2683 0 12.3503 0 10.2983V10.1903C0 7.70633 2.15998 6.84233 4.80596 6.84233H6.04795V6.35634C6.04795 5.33035 5.61595 4.73635 4.53596 4.73635C3.56397 4.73635 3.07798 5.27635 3.02398 6.03234H0.323997C0.539996 3.76436 2.32198 2.68437 4.69796 2.68437C7.12794 2.68437 8.90993 3.71036 8.90993 6.24834V13.0523H6.15595V11.8643C5.61595 12.6203 4.69796 13.2683 3.34797 13.2683ZM6.04795 9.70431V8.73232H4.91396C3.50997 8.73232 2.80798 9.11032 2.80798 10.0283V10.1363C2.80798 10.8383 3.23997 11.3243 4.21197 11.3243C5.18396 11.2703 6.04795 10.7303 6.04795 9.70431ZM15.3359 13.2683C12.5279 13.2683 10.4759 11.5403 10.4759 8.08432V7.92232C10.4759 4.46635 12.6359 2.63037 15.3359 2.63037C17.6579 2.63037 19.5478 3.81836 19.7638 6.46434H17.0639C16.9019 5.49234 16.3619 4.84435 15.3899 4.84435C14.2019 4.84435 13.3379 5.81634 13.3379 7.81433V8.13832C13.3379 10.1903 14.0939 11.1083 15.3899 11.1083C16.3619 11.1083 17.0639 10.4063 17.2259 9.27231H19.8178C19.6558 11.6483 18.0899 13.2683 15.3359 13.2683ZM25.9198 13.2683C23.1118 13.2683 21.0598 11.5403 21.0598 8.08432V7.92232C21.0598 4.46635 23.2198 2.63037 25.9198 2.63037C28.2418 2.63037 30.1318 3.81836 30.3478 6.46434H27.6478C27.4858 5.49234 26.9458 4.84435 25.9738 4.84435C24.7858 4.84435 23.9218 5.81634 23.9218 7.81433V8.13832C23.9218 10.1903 24.6778 11.1083 25.9738 11.1083C26.9458 11.1083 27.6478 10.4063 27.8098 9.27231H30.4018C30.2398 11.6483 28.6738 13.2683 25.9198 13.2683ZM36.5577 13.2683C33.6417 13.2683 31.6437 11.5403 31.6437 8.13832V7.92232C31.6437 4.52035 33.7497 2.63037 36.5037 2.63037C39.0417 2.63037 41.1477 4.03436 41.1477 7.43633V8.67832H34.5057C34.6137 10.5143 35.4237 11.2163 36.6117 11.2163C37.6917 11.2163 38.2857 10.6223 38.5017 9.92031H41.1477C40.8237 11.8103 39.2037 13.2683 36.5577 13.2683ZM34.5597 6.78833H38.3397C38.2857 5.27634 37.5837 4.62835 36.4497 4.62835C35.5857 4.68235 34.7757 5.16835 34.5597 6.78833ZM42.8757 2.90036H45.7376V4.41235C46.2236 3.44036 47.2496 2.68437 48.8156 2.68437C50.6516 2.68437 51.8936 3.81836 51.8936 6.24834V13.0523H49.0316V6.68033C49.0316 5.49234 48.5456 4.95235 47.5196 4.95235C46.5476 4.95235 45.7376 5.54634 45.7376 6.84233V13.0523H42.8757V2.90036ZM57.1315 -0.177612V2.90036H59.0755V5.00635H57.1315V9.81231C57.1315 10.5683 57.4555 10.9463 58.1575 10.9463C58.5895 10.9463 58.8595 10.8923 59.1295 10.7843V12.9983C58.8055 13.1063 58.2115 13.2143 57.5095 13.2143C55.2956 13.2143 54.2696 12.1883 54.2696 10.1363V5.00635H53.0816V2.90036H54.2696V1.01038L57.1315 -0.177612ZM69.7674 13.0523H66.9595V11.5403C66.4735 12.5123 65.5015 13.2683 63.9895 13.2683C62.1535 13.2683 60.8035 12.1343 60.8035 9.75831V2.90036H63.6655V9.38031C63.6655 10.5683 64.1515 11.1083 65.1235 11.1083C66.0955 11.1083 66.9055 10.4603 66.9055 9.21831V2.90036H69.7674V13.0523ZM71.8734 2.90036H74.7354V4.79035C75.3294 3.44036 76.3014 2.79236 77.8134 2.79236V5.60034C75.8694 5.60034 74.7354 6.19434 74.7354 7.86832V13.1063H71.8734V2.90036ZM83.5913 13.2683C80.6754 13.2683 78.6774 11.5403 78.6774 8.13832V7.92232C78.6774 4.52035 80.7833 2.63037 83.5373 2.63037C86.0753 2.63037 88.1813 4.03436 88.1813 7.43633V8.67832H81.5933C81.7013 10.5143 82.5113 11.2163 83.6993 11.2163C84.7793 11.2163 85.3733 10.6223 85.5893 9.92031H88.2353C87.8033 11.8103 86.2373 13.2683 83.5913 13.2683ZM81.5393 6.78833H85.3733C85.3193 5.27634 84.6173 4.62835 83.4833 4.62835C82.6193 4.68235 81.8093 5.16835 81.5393 6.78833Z" fill="white"/>
</g>
<defs>
<clipPath id="clip0_37_814">
<rect width="90" height="15.8824" fill="white"/>
</clipPath>
</defs>
</svg>
