<svg width="26" height="23" viewBox="0 0 26 23" fill="none" xmlns="http://www.w3.org/2000/svg">
<path id="Vector" d="M10.9474 14.375C12.3158 14.375 13.7526 14.605 15.3263 15.0075C14.2179 16.2581 13.6842 17.7244 13.6842 19.4062C13.6842 20.6856 14.0263 21.8931 14.7516 23H0V20.125C0 18.4144 1.24526 17.0344 3.74947 15.985C6.25368 14.9212 8.66211 14.375 10.9474 14.375ZM10.9474 11.5C9.46947 11.5 8.21053 10.9394 7.08842 9.81812C5.99368 8.69687 5.47368 7.34562 5.47368 5.75C5.47368 4.1975 5.99368 2.875 7.08842 1.69625C8.21053 0.54625 9.46947 0 10.9474 0C12.4663 0 13.7526 0.54625 14.82 1.69625C15.8874 2.875 16.4211 4.1975 16.4211 5.75C16.4211 7.34562 15.8874 8.69687 14.82 9.81812C13.7526 10.9394 12.4663 11.5 10.9474 11.5ZM21.2105 8.625H23.2632H26V11.5H23.2632V19.4062C23.2632 20.3594 22.9027 21.2735 22.2612 21.9474C21.6196 22.6214 20.7494 23 19.8421 23C18.9348 23 18.0646 22.6214 17.4231 21.9474C16.7815 21.2735 16.4211 20.3594 16.4211 19.4062C16.4211 18.4531 16.7815 17.539 17.4231 16.8651C18.0646 16.1911 18.9348 15.8125 19.8421 15.8125C20.3347 15.8125 20.7863 15.9131 21.2105 16.1144V8.625Z" fill="#252525"/>
</svg>
