<svg width="23" height="22" viewBox="0 0 23 22" fill="none" xmlns="http://www.w3.org/2000/svg">
<path id="Vector" d="M20.0826 0H23V2.45399H21.0753L14.6716 8.94479L12.9647 7.23926L20.0826 0ZM10.8947 7.36196C11.2095 7.36196 11.5 7.48466 11.7542 7.73006L14.1753 10.184C14.3932 10.4294 14.5263 10.7117 14.5263 11.0429L14.4053 11.5337L9.56316 21.3497C9.33316 21.7791 8.90947 22 8.47368 22C8.05 22 7.61421 21.7791 7.39632 21.3497L5.14474 16.8098L0.665789 14.6012C0.217895 14.3558 0 13.9264 0 13.4969C0 13.0675 0.217895 12.638 0.665789 12.3926L10.35 7.48466C10.5195 7.36196 10.7011 7.36196 10.8947 7.36196ZM7.68684 10.8221L6.83947 11.6564L10.2895 15.1534L11.1126 14.2945L7.68684 10.8221ZM5.98 12.5521L5.12053 13.4233L8.54632 16.8957L9.40579 16.0245L5.98 12.5521Z" fill="#252525"/>
</svg>
