<svg width="12" height="9" viewBox="0 0 12 9" fill="none" xmlns="http://www.w3.org/2000/svg">
<path d="M12 4.5L9.81818 2.25V3.9375H4.90909V5.0625H9.81818V6.75M0 7.875V1.125C0 0.500625 0.490909 0 1.09091 0H7.63636C7.92569 0 8.20317 0.118526 8.40775 0.329505C8.61234 0.540483 8.72727 0.826631 8.72727 1.125V2.8125H7.63636V1.125H1.09091V7.875H7.63636V6.1875H8.72727V7.875C8.72727 8.17337 8.61234 8.45952 8.40775 8.6705C8.20317 8.88147 7.92569 9 7.63636 9H1.09091C0.801582 9 0.524105 8.88147 0.31952 8.6705C0.114935 8.45952 0 8.17337 0 7.875Z" fill="black"/>
</svg>
