<svg width="22" height="25" viewBox="0 0 22 25" fill="none" xmlns="http://www.w3.org/2000/svg">
<path id="Vector" d="M10.5253 20.9302C10.6642 21.7674 10.9537 22.5465 11.3589 23.2558H2.31579C1.03053 23.2558 0 22.2209 0 20.9302V2.32558C0 1.04651 1.03053 0 2.31579 0H11.5789L18.5263 6.97674V12.8953C18.1442 12.8372 17.7621 12.7907 17.3684 12.7907C16.9747 12.7907 16.5926 12.8372 16.2105 12.8953V8.13953H10.4211V2.32558H2.31579V20.9302H10.5253ZM22 17.4419L18.5263 14.5349V16.2791H13.8947V18.6047H18.5263V20.3488L22 17.4419ZM16.2105 19.186L12.7368 22.093L16.2105 25V23.2558H20.8421V20.9302H16.2105V19.186Z" fill="#252525"/>
</svg>
