<svg width="12" height="12" viewBox="0 0 12 12" fill="none" xmlns="http://www.w3.org/2000/svg">
<path id="Vector" d="M6.58628 0C9.43131 0.282424 11.6989 2.5358 11.9696 5.39009C12.3004 8.69504 9.89446 11.6274 6.58628 11.9579V10.7561C8.77569 10.4977 10.4959 8.76114 10.7726 6.57386C11.0974 3.9359 9.22681 1.53831 6.58628 1.21382V0.012018V0ZM5.38331 0.018027V1.21983C4.52318 1.34001 3.71117 1.68853 3.03751 2.22934L2.17738 1.34001C3.09164 0.582874 4.21041 0.132198 5.38331 0.018027ZM1.32929 2.18728L2.18941 3.04657C1.65409 3.72559 1.31726 4.53681 1.20297 5.39009H0C0.120297 4.21232 0.571413 3.10065 1.32929 2.18728ZM0.00601486 6.59189H1.20899C1.31726 7.44517 1.6601 8.25638 2.18941 8.9354L1.3353 9.79469C0.589457 8.88132 0.126312 7.76965 0.00601486 6.59189ZM3.03751 9.81873C3.71719 10.3475 4.5292 10.69 5.38331 10.7982V12C4.20439 11.8738 3.08563 11.3991 2.17738 10.642L3.03751 9.81873ZM5.98479 8.69504L3.2781 5.99099H5.38331V3.58738H6.58628V5.99099H8.69149L5.98479 8.69504Z" fill="black"/>
</svg>
