<svg width="14" height="14" viewBox="0 0 14 14" fill="none" xmlns="http://www.w3.org/2000/svg">
<path d="M9.62457 13.1271C9.65956 13.3604 9.57207 13.6092 9.37086 13.7725C9.02966 14.0758 8.47851 14.0758 8.13731 13.7725L4.62914 10.6541C4.42792 10.4752 4.34044 10.2341 4.37543 10.0086V6.02694L0.184877 1.25983C-0.112574 0.925427 -0.0425857 0.435495 0.333602 0.171087C0.499825 0.0622136 0.683544 0 0.876012 0H13.124C13.3165 0 13.5002 0.0622136 13.6664 0.171087C14.0426 0.435495 14.1126 0.925427 13.8151 1.25983L9.62457 6.02694V13.1271ZM2.66072 1.55534L6.12514 5.49035V9.78309L7.87486 11.3384V5.48257L11.3393 1.55534H2.66072Z" fill="black"/>
</svg>
