<svg width="223" height="126" viewBox="0 0 223 126" fill="none" xmlns="http://www.w3.org/2000/svg">
<path d="M43.642 119V97.1818H51.0142C52.7259 97.1818 54.125 97.4908 55.2116 98.1087C56.3054 98.7195 57.1151 99.5469 57.6406 100.591C58.1662 101.635 58.429 102.8 58.429 104.085C58.429 105.371 58.1662 106.539 57.6406 107.59C57.1222 108.641 56.3196 109.479 55.233 110.104C54.1463 110.722 52.7543 111.031 51.0568 111.031H45.7727V108.688H50.9716C52.1435 108.688 53.0845 108.485 53.7947 108.08C54.505 107.675 55.0199 107.129 55.3395 106.44C55.6662 105.744 55.8295 104.959 55.8295 104.085C55.8295 103.212 55.6662 102.43 55.3395 101.741C55.0199 101.053 54.5014 100.513 53.7841 100.122C53.0668 99.7244 52.1151 99.5256 50.929 99.5256H46.2841V119H43.642ZM77.0032 97.1818H79.6452V111.628C79.6452 113.119 79.2937 114.451 78.5906 115.623C77.8945 116.788 76.9109 117.707 75.6396 118.382C74.3683 119.05 72.8768 119.384 71.1651 119.384C69.4535 119.384 67.962 119.05 66.6907 118.382C65.4194 117.707 64.4322 116.788 63.729 115.623C63.033 114.451 62.685 113.119 62.685 111.628V97.1818H65.3271V111.415C65.3271 112.48 65.5614 113.428 66.0302 114.259C66.4989 115.083 67.1665 115.733 68.033 116.209C68.9066 116.678 69.9506 116.912 71.1651 116.912C72.3796 116.912 73.4237 116.678 74.2972 116.209C75.1708 115.733 75.8384 115.083 76.3001 114.259C76.7688 113.428 77.0032 112.48 77.0032 111.415V97.1818ZM84.9213 119V97.1818H87.5634V116.656H97.7054V119H84.9213ZM113.728 102.636C113.6 101.557 113.082 100.719 112.173 100.122C111.264 99.5256 110.149 99.2273 108.828 99.2273C107.862 99.2273 107.017 99.3835 106.292 99.696C105.575 100.009 105.014 100.438 104.609 100.985C104.211 101.532 104.012 102.153 104.012 102.849C104.012 103.432 104.151 103.933 104.428 104.352C104.712 104.763 105.074 105.108 105.514 105.385C105.955 105.655 106.416 105.879 106.899 106.056C107.382 106.227 107.826 106.365 108.231 106.472L110.447 107.068C111.015 107.217 111.647 107.423 112.343 107.686C113.046 107.949 113.718 108.308 114.357 108.762C115.003 109.21 115.536 109.785 115.955 110.488C116.374 111.191 116.583 112.054 116.583 113.077C116.583 114.256 116.274 115.321 115.656 116.273C115.046 117.224 114.151 117.981 112.972 118.542C111.8 119.103 110.376 119.384 108.7 119.384C107.137 119.384 105.784 119.131 104.641 118.627C103.504 118.123 102.61 117.42 101.956 116.518C101.31 115.616 100.944 114.568 100.859 113.375H103.586C103.657 114.199 103.934 114.881 104.417 115.42C104.907 115.953 105.525 116.351 106.271 116.614C107.024 116.869 107.833 116.997 108.7 116.997C109.708 116.997 110.614 116.834 111.416 116.507C112.219 116.173 112.855 115.712 113.323 115.122C113.792 114.526 114.026 113.83 114.026 113.034C114.026 112.31 113.824 111.72 113.419 111.266C113.014 110.811 112.482 110.442 111.821 110.158C111.161 109.874 110.447 109.625 109.68 109.412L106.995 108.645C105.291 108.155 103.941 107.455 102.947 106.546C101.953 105.637 101.455 104.447 101.455 102.977C101.455 101.756 101.786 100.69 102.446 99.7812C103.114 98.8651 104.009 98.1548 105.131 97.6506C106.26 97.1392 107.521 96.8835 108.913 96.8835C110.319 96.8835 111.569 97.1357 112.663 97.6399C113.757 98.1371 114.623 98.8189 115.262 99.6854C115.909 100.552 116.249 101.536 116.285 102.636H113.728ZM120.927 119V97.1818H134.095V99.5256H123.569V106.898H133.413V109.241H123.569V116.656H134.265V119H120.927ZM149.031 119H143.363L150.725 97.1818H157.745L165.107 119H159.439L154.315 102.679H154.145L149.031 119ZM148.275 110.413H160.121V114.419H148.275V110.413ZM172.729 97.1818V119H167.456V97.1818H172.729Z" fill="#E7E7E7"/>
<rect y="28" width="6" height="12" fill="#D9D9D9"/>
<rect x="12" y="28" width="6" height="12" fill="#D9D9D9"/>
<rect x="24" y="24" width="6" height="21" fill="#D9D9D9"/>
<rect x="48" width="6" height="66" fill="#D9D9D9"/>
<rect x="139" width="6" height="66" fill="#D9D9D9"/>
<rect x="60" y="9" width="6" height="48" fill="#D9D9D9"/>
<rect x="127" y="9" width="6" height="48" fill="#D9D9D9"/>
<rect x="72" y="21" width="6" height="24" fill="#D9D9D9"/>
<rect x="83" y="21" width="6" height="24" fill="#D9D9D9"/>
<rect x="94" y="21" width="6" height="24" fill="#D9D9D9"/>
<rect x="105" y="21" width="6" height="24" fill="#D9D9D9"/>
<rect x="116" y="21" width="6" height="24" fill="#D9D9D9"/>
<rect x="162" y="21" width="6" height="24" fill="#D9D9D9"/>
<rect x="173" y="21" width="6" height="24" fill="#D9D9D9"/>
<rect x="184" y="21" width="6" height="24" fill="#D9D9D9"/>
<rect x="195" y="21" width="6" height="24" fill="#D9D9D9"/>
<rect x="206" y="22" width="6" height="21" fill="#D9D9D9"/>
<rect x="217" y="26" width="6" height="14" fill="#D9D9D9"/>
<rect x="36" y="15" width="6" height="36" fill="#D9D9D9"/>
<rect x="150" y="15" width="6" height="36" fill="#D9D9D9"/>
</svg>
