<svg width="11" height="12" viewBox="0 0 11 12" fill="none" xmlns="http://www.w3.org/2000/svg">
<path id="Vector" d="M4.08571 0C5.16931 0 6.20853 0.46959 6.97475 1.30547C7.74097 2.14134 8.17143 3.27504 8.17143 4.45714C8.17143 5.56114 7.80057 6.576 7.19086 7.35771L7.36057 7.54286H7.85714L11 10.9714L10.0571 12L6.91429 8.57143V8.02971L6.74457 7.84457C6.028 8.50971 5.09771 8.91429 4.08571 8.91429C3.00212 8.91429 1.9629 8.4447 1.19668 7.60882C0.430458 6.77294 0 5.63925 0 4.45714C0 3.27504 0.430458 2.14134 1.19668 1.30547C1.9629 0.46959 3.00212 0 4.08571 0ZM4.08571 1.37143C2.51429 1.37143 1.25714 2.74286 1.25714 4.45714C1.25714 6.17143 2.51429 7.54286 4.08571 7.54286C5.65714 7.54286 6.91429 6.17143 6.91429 4.45714C6.91429 2.74286 5.65714 1.37143 4.08571 1.37143Z" fill="#E4E4E4"/>
</svg>
