<svg width="100" height="17" viewBox="0 0 100 17" fill="none" xmlns="http://www.w3.org/2000/svg">
<g id="Sony logo" clip-path="url(#clip0_37_809)">
<g id="Group">
<path id="Vector" fill-rule="evenodd" clip-rule="evenodd" d="M13.4225 4.03608C13.1362 3.2413 12.2781 0.937347 7.30444 0.937347C6.41472 0.937347 1.91732 0.937348 1.91732 4.40131C1.91732 6.1652 3.41092 7.32521 6.08061 7.69096L8.84577 8.07227C10.4986 8.27823 11.3567 8.77109 11.3567 9.51763C11.3567 10.5189 9.83095 11.1228 7.98769 11.1228C4.93668 11.1228 4.0786 9.89997 3.66513 9.05798L1.48828 9.74071C1.75857 10.6154 2.96632 13.062 7.92388 13.062C11.0065 13.062 13.6129 12.0447 13.6129 9.31166C13.6129 7.37294 12.0877 6.37168 9.49685 5.97429L6.76386 5.56133C4.45991 5.27496 4.17354 4.75098 4.17354 4.25813C4.17354 3.19357 5.71487 2.81226 7.24063 2.81226C9.9897 2.81226 10.9272 3.70198 11.2929 4.73541L13.4225 4.03608ZM19.0587 13.0615C21.3943 13.0615 23.8419 11.9015 23.8419 8.5008C23.8419 6.21241 22.4594 3.95619 19.0587 3.95619C15.658 3.95619 14.2754 6.21241 14.2754 8.5008C14.2754 11.9015 16.7226 13.0615 19.0587 13.0615ZM19.0587 11.3765C17.2948 11.3765 16.278 10.2802 16.278 8.46863C16.278 6.46714 17.549 5.6407 19.0587 5.6407C20.5523 5.6407 21.8394 6.46662 21.8394 8.46863C21.8394 10.2802 20.822 11.3765 19.0587 11.3765ZM24.9905 12.7751H26.9609V6.89618C27.4537 6.2923 28.0893 5.64122 29.6622 5.64122C30.9815 5.64122 31.4899 6.35612 31.4899 8.04063V12.7751H33.4603V7.30913C33.4603 4.70325 31.9034 3.95619 30.1234 3.95619C28.3912 3.95619 27.5492 4.70273 26.9293 5.30712V4.24256H24.9905V12.7751ZM34.7251 15.4448C35.0748 15.5724 35.6787 15.699 36.4413 15.699C37.9987 15.699 39.2381 15.0635 40.0007 13.4589L44.4343 4.24204H42.2735L39.3813 10.4717L36.489 4.24204H34.3277L37.744 11.281C38.0142 11.8371 38.0936 12.2195 38.0936 12.6164C38.0936 13.268 37.553 13.9507 35.9323 13.9507C35.4078 13.9507 34.9788 13.8231 34.7246 13.7603L34.7251 15.4448ZM56.6129 12.7751H58.4095L62.1116 4.02H62.1432V12.7751H64.1452V1.2232H61.1736L57.5037 9.78791L53.8965 1.2232H50.8605V12.7751H52.8626V4.02H52.8952L56.6129 12.7751ZM74.6071 4.24204H72.6363V10.121C72.1439 10.7248 71.5084 11.3765 69.9349 11.3765C68.6167 11.3765 68.1083 10.6621 68.1083 8.97705V4.24204H66.1374V9.70854C66.1374 12.3144 67.6948 13.0615 69.4742 13.0615C71.207 13.0615 72.0801 12.3149 72.6689 11.7106V12.7746H74.6071V4.24204ZM84.3895 5.95872C83.1029 4.16319 80.9888 3.94063 80.0202 3.94063C76.6989 3.94063 75.9996 5.76781 75.9996 6.65805C75.9996 7.96125 76.6673 8.99364 79.8926 9.40712C81.99 9.69297 82.4673 9.75679 82.4673 10.4084C82.4673 11.1549 81.5138 11.4724 80.4653 11.4724C79.2259 11.4724 78.0332 11.1228 77.3505 10.0115L75.6815 10.9801C76.413 11.8859 77.3344 13.0625 80.2749 13.0625C81.657 13.0625 84.5337 12.7756 84.5337 10.2657C84.5337 8.15217 82.404 7.80198 80.0685 7.50057C78.8918 7.34182 78.0664 7.23028 78.0664 6.56259C78.0664 6.08635 78.5427 5.52968 79.9735 5.52968C81.769 5.52968 82.4518 6.46713 82.7537 6.86453L84.3895 5.95872ZM85.7544 12.7751H87.7242V4.24204H85.7544V12.7751ZM85.7544 2.68515H87.7242V0.936829H85.7544V2.68515ZM96.4814 9.7241C96.3071 10.4872 95.449 11.377 93.7484 11.377C91.8569 11.377 90.9833 10.011 90.9833 8.37421C90.9833 7.00772 92.0484 5.64122 93.9067 5.64122C95.3852 5.64122 96.2272 6.49878 96.4176 7.18255H98.3885C98.2458 5.73616 96.911 3.94063 93.7801 3.95671C90.7452 3.97227 88.9813 6.05418 88.9813 8.29484C88.9813 11.7266 91.2214 13.062 93.9554 13.062C97.0853 13.062 98.277 10.9168 98.5478 9.7241H96.4814Z" fill="white"/>
</g>
</g>
<defs>
<clipPath id="clip0_37_809">
<rect width="100" height="16.76" fill="white"/>
</clipPath>
</defs>
</svg>
